Patient4_TMGait_0pt6_01_left_27_EMG.mot
version=1
nRows=20
nColumns=33
inDegrees=no
endheader
time	1LAddLong	2LGlutMax	3LGlutMed	4LIliopsoas	5LSemiMemb	6LBicFemLong	7LRecFem	8LVastMed	9LVastLat	10LGasMed	11LTibAnt	12lTibPost	13LPeroneusLong	14LSol	15LExtDigLong	16LFlexDigLong	17RAddLong	18RGlutMax	19RGlutMed	20RIliopsoas	21RSemiMemb	22RBicFemLong	23RRecFem	24RVastMed	25RVastLat	26RGasMed	27RTibAnt	28RTibPost	29RPeroneusLong	30RSol	31RExtDigLong	32RFlexDigLong
34.1	0.009308	0.3064	-0.04715	0.00473	0.073853	0.07431	-0.031433	-0.002289	0.075989	-0.024109	0.005341	0.014648	0.016785	-0.027771	0.003815	-0.011139	0.012054	0.2301	0.098419	-0.00351	0.023499	0.18829	-0.028687	0.13428	-0.05249	-0.00061	-0.092468	-0.001984	0.058746	-0.097504	-0.00351	-0.013428
34.101	0.004425	0.31113	-0.042572	0.013733	0.036316	0.070343	-0.032501	-0.001678	0.075989	-0.028687	-0.052032	0.015259	0.026703	-0.023651	0.008087	-0.00885	0.002441	0.24902	0.034027	0.17532	0.029144	0.16876	0.061951	0.10162	-0.065155	0.005341	0.017395	0.000458	-0.16998	-0.019379	-0.004578	-0.007629
34.102	-0.003204	0.2858	-0.11215	0.000305	0.071411	0.062714	-0.015869	0.004272	0.069275	-0.027771	-0.06424	0.015564	0.021667	-0.03067	0.00061	-0.006866	0.005341	0.20233	0.84457	0.20721	0.015869	0.1712	0.019531	0.06134	-0.088654	0.010986	-0.032349	-0.004272	0.03006	0.006409	-0.003967	-0.005951
34.103	-0.013885	0.27802	-0.14908	-0.013428	0.050507	0.066223	-0.001984	0.006561	0.070953	-0.029755	-0.050507	0.015717	0.027771	-0.072784	-0.014496	-0.010071	0.013885	0.14923	0.61127	0.13489	0.000763	0.17822	-0.095673	0.055237	-0.15976	0.007324	0.057983	-0.001984	0.19714	-0.081482	-0.00061	-0.005188
34.104	-0.005341	0.29175	-0.1799	-0.013885	0.036316	-0.027618	-0.02533	0.001831	0.077667	-0.04425	-0.029755	0.018616	0.061951	-0.059204	-0.019989	0.002136	0.007172	0.084381	-0.45425	0.02243	-0.002594	0.18768	-0.032806	0.059052	-0.084381	0.008087	0.18814	-0.002289	-0.086212	-0.046692	-0.002136	-0.010223
34.105	0.021515	0.27466	-0.058746	-0.008392	0.042114	0.00061	-0.035095	-0.000305	0.079498	-0.03418	0.0177	0.015869	0.052032	-0.062408	-0.022278	-0.006409	0.007019	0.035706	-0.072174	-0.008545	0.06485	0.15549	0.28412	-0.014954	-0.10742	0.001068	0.20905	-0.002136	-0.37567	0.079346	-0.002289	-0.000458
34.106	0.028992	0.23926	0.02533	0.000763	-0.014648	0.071106	-0.056915	-0.002747	0.081177	-0.032196	0.043335	0.007629	0.026855	-0.06134	0.001068	-0.010529	0.009155	0.004578	-0.56854	-0.0354	0.057831	0.15625	0.35049	-0.082092	-0.15793	-0.010376	0.14252	-0.007477	-0.35248	0.1471	-0.000153	-0.014801
34.107	0.026703	0.22125	0.11765	0.011749	-0.040588	0.13306	-0.062714	-0.006104	0.075836	-0.021667	0.07843	0.012054	-0.010376	-0.062714	0.018311	-0.005798	0.012207	0.001678	-0.79392	-0.021973	0.027161	0.1561	0.18494	-0.19821	-0.08667	-0.016937	0.12177	-0.00061	-0.13977	0.10269	-0.005951	-0.016632
34.108	0.026245	0.23102	0.12589	0.016174	0.039368	0.015717	-0.057526	-0.007629	0.070801	-0.016022	0.12451	0.012054	-0.009003	-0.077057	0.047913	-0.001831	0.012207	0.032654	-0.76736	0.066376	0.026703	0.12863	0.2301	-0.067596	0.014954	-0.019531	0.11124	-0.00351	-0.062714	0.079498	-0.000305	-0.010223
34.109	0.012817	0.20615	0.049133	0.019226	0.068665	-0.12528	-0.043488	0.001526	0.06897	-0.028687	0.10284	0.01709	0.022278	-0.066528	0.018158	-0.002441	-0.01358	-0.08606	-1.0152	0.18005	0.039215	0.15243	-0.089874	0.077972	0.11765	-0.012817	0.12451	-0.001221	-0.056	-0.022736	0.001526	-0.006104
34.11	0.016937	0.17838	-0.000153	0.016937	0.050354	-0.1059	-0.031281	0.000763	0.062256	-0.034027	0.07309	0.021973	0.041504	-0.063171	0.002289	-0.003052	-0.010376	-0.12222	-0.43076	0.07843	0.028687	0.15747	-0.11688	0.040894	0.093536	-0.008545	0.10071	-0.006866	0.061646	-0.014038	-0.001068	-0.015106
34.111	0.012207	0.18433	0.001984	0.01297	0.029449	-0.033112	-0.046692	-0.001678	0.041351	-0.024414	-0.014954	0.01709	0.037231	-0.056458	-0.006866	0.00473	0.011749	-0.16495	0.55466	-0.094299	0.02121	0.16586	-0.09613	-0.012054	0.024872	-0.012665	0.06546	-0.000153	0.14908	0.035858	-0.001831	-0.016174
34.112	0.012207	0.17517	-0.06012	0.00946	0.014496	-0.057068	-0.04837	-0.004425	0.052032	-0.020752	-0.020599	0.001373	0.019226	-0.034332	0.005341	0.000153	0.015717	-0.19119	0.68405	-0.24094	0.015869	0.14404	-0.34622	-0.035858	0.026703	-0.012207	0.10147	0.000763	0.14313	0.033417	-0.002594	-0.011139
34.113	0.003967	0.14923	-0.029755	-0.004883	0	-0.13825	-0.057373	-0.000153	0.040131	-0.020447	-0.009155	0.016022	0.014496	-0.011444	0.001831	0.001678	0.008698	-0.23941	0.15595	-0.22308	0.018921	0.13718	-0.27451	-0.048218	0.053558	-0.007324	0.15106	-0.001984	0.034637	0.17609	-0.001373	-0.01297
34.114	0.010681	0.12497	-0.044403	0.007477	-0.029297	-0.094604	-0.068512	0.002136	0.034332	-0.012665	0.003204	0.016479	0.025177	-0.02182	-0.003357	-0.010681	0.009003	-0.33676	-0.083008	-0.035248	0.014191	0.13489	-0.095673	-0.04364	0.028839	-0.011139	0.18967	-0.001984	-0.10056	0.2858	-0.002747	-0.0177
34.115	0.004425	0.12528	-0.034943	-0.005188	-0.02594	-0.027771	-0.086365	0.005035	0.028381	-0.018311	0.01297	0.018768	0.011292	-0.066376	-0.002136	0.002441	0.010834	-0.27817	-0.32074	0.11765	0.02655	0.11856	0.14938	-0.1358	-0.046387	-0.011444	0.18799	-0.001068	-0.13534	0.25223	-0.002594	-0.019684
34.116	-0.006714	0.16113	-0.046692	-0.004272	0.054474	-0.007782	-0.056305	0.002899	0.023041	-0.022888	0.011597	0.023346	-0.025482	-0.08728	-0.003204	0.009155	0.02533	-0.24628	-0.19134	0.24017	0.018921	0.12238	0.007019	-0.19577	-0.1268	-0.007782	0.077209	0	-0.11505	0.081635	-0.000763	-0.020905
34.117	0.015411	0.14038	-0.095825	0.009003	0.02182	0.028381	-0.080872	0.005188	0.011902	-0.035095	0.01297	0.013123	-0.020294	-0.11856	-0.003815	0.005798	0.00946	-0.24384	-0.11383	0.18158	0.022888	0.11505	-0.22415	-0.24307	-0.10819	0	-0.085602	0.00061	-0.08606	-0.12878	-0.004272	-0.012207
34.118	-0.000916	0.11795	-0.065918	0.007172	-0.018005	-0.010986	-0.056	0.002289	0.013275	-0.028839	0.015411	0.00824	-0.009308	-0.091248	-0.001526	0.008545	-0.014343	-0.35614	0.32776	0.034485	0.037384	0.14206	-0.33447	-0.21301	0.039215	0.002289	-0.2565	-0.005035	-0.17014	-0.23209	-0.002899	-0.002747
34.119	0.005035	0.1265	0.007935	0.026093	-0.008545	-0.020599	-0.082092	0.011597	0.016937	-0.022278	0.002441	0.01358	0.008392	-0.095825	-0.001068	0.006561	-0.011749	-0.32272	0.009613	0.020142	0.045471	0.12558	-0.36545	-0.016327	-0.045624	0.003815	-0.2034	-0.000916	-0.23483	-0.15915	-0.00412	0.002594
